<svg width="40" height="40" viewBox="0 0 40 40" fill="none" xmlns="http://www.w3.org/2000/svg">
<path fill-rule="evenodd" clip-rule="evenodd" d="M35.3462 11.2552C37.1068 12.2333 37.1068 14.4334 35.3462 15.4115L33.0869 16.6667L35.3462 17.9218C37.1068 18.9 37.1068 21.1001 35.3462 22.0782L33.0869 23.3333L35.3462 24.5885C37.1068 25.5666 37.1068 27.7667 35.3462 28.7448L21.9276 36.1996C20.8067 36.8224 19.1933 36.8224 18.0724 36.1996L4.65376 28.7448C2.89317 27.7667 2.89317 25.5666 4.65376 24.5885L6.91307 23.3333L4.65376 22.0782C2.89317 21.1001 2.89317 18.9 4.65376 17.9218L6.91306 16.6667L4.65376 15.4115C2.89317 14.4334 2.89317 12.2333 4.65376 11.2552L18.0724 3.8004C19.1933 3.17766 20.8067 3.17766 21.9276 3.8004L35.3462 11.2552ZM21.9276 22.8663L29.655 18.5733L32.2231 20L29.655 21.4268L26.2231 23.3333L20.3088 26.6191C20.1946 26.6825 19.8054 26.6825 19.6912 26.6191L13.7768 23.3333L10.3449 21.4268L7.77682 20L10.3449 18.5733L18.0724 22.8663C19.1933 23.489 20.8067 23.489 21.9276 22.8663ZM10.345 25.2399L7.77682 26.6667L19.6912 33.2858C19.8054 33.3492 20.1946 33.3492 20.3088 33.2858L32.2231 26.6667L29.655 25.2399L21.9276 29.5329C20.8067 30.1557 19.1933 30.1557 18.0724 29.5329L10.345 25.2399ZM19.6911 6.71426C19.8053 6.65082 20.1945 6.65082 20.3087 6.71426L32.2231 13.3333L20.3087 19.9524C20.1945 20.0159 19.8053 20.0159 19.6911 19.9524L7.77676 13.3333L19.6911 6.71426Z" fill="url(#paint0_linear)"/>
<defs>
<linearGradient id="paint0_linear" x1="20" y1="3.33334" x2="20" y2="36.6667" gradientUnits="userSpaceOnUse">
<stop stop-color="#CF45FF"/>
<stop offset="0.521804" stop-color="#FF005C"/>
<stop offset="1" stop-color="#FFE600"/>
</linearGradient>
</defs>
</svg>
